<svg width="24" height="24" viewBox="0 0 24 24" fill="none" xmlns="http://www.w3.org/2000/svg">
<path d="M12 7.33317V7.33984M12 11.9998V12.0065M12 16.6665V16.6732M12 7.99984C11.8232 7.99984 11.6537 7.9296 11.5286 7.80458C11.4036 7.67955 11.3334 7.50998 11.3334 7.33317C11.3334 7.15636 11.4036 6.98679 11.5286 6.86177C11.6537 6.73674 11.8232 6.6665 12 6.6665C12.1769 6.6665 12.3464 6.73674 12.4714 6.86177C12.5965 6.98679 12.6667 7.15636 12.6667 7.33317C12.6667 7.50998 12.5965 7.67955 12.4714 7.80458C12.3464 7.9296 12.1769 7.99984 12 7.99984ZM12 12.6665C11.8232 12.6665 11.6537 12.5963 11.5286 12.4712C11.4036 12.3462 11.3334 12.1766 11.3334 11.9998C11.3334 11.823 11.4036 11.6535 11.5286 11.5284C11.6537 11.4034 11.8232 11.3332 12 11.3332C12.1769 11.3332 12.3464 11.4034 12.4714 11.5284C12.5965 11.6535 12.6667 11.823 12.6667 11.9998C12.6667 12.1766 12.5965 12.3462 12.4714 12.4712C12.3464 12.5963 12.1769 12.6665 12 12.6665ZM12 17.3332C11.8232 17.3332 11.6537 17.2629 11.5286 17.1379C11.4036 17.0129 11.3334 16.8433 11.3334 16.6665C11.3334 16.4897 11.4036 16.3201 11.5286 16.1951C11.6537 16.0701 11.8232 15.9998 12 15.9998C12.1769 15.9998 12.3464 16.0701 12.4714 16.1951C12.5965 16.3201 12.6667 16.4897 12.6667 16.6665C12.6667 16.8433 12.5965 17.0129 12.4714 17.1379C12.3464 17.2629 12.1769 17.3332 12 17.3332Z" stroke="#9CA3AF" stroke-width="1.33333"/>
</svg>
