<svg width="38" height="38" viewBox="0 0 38 38" fill="none" xmlns="http://www.w3.org/2000/svg">
<mask id="path-1-inside-1_212_2895" fill="white">
<path d="M0 19C0 8.50659 8.50659 0 19 0C29.4934 0 38 8.50659 38 19C38 29.4934 29.4934 38 19 38C8.50659 38 0 29.4934 0 19Z"/>
</mask>
<path d="M0 19C0 8.50659 8.50659 0 19 0C29.4934 0 38 8.50659 38 19C38 29.4934 29.4934 38 19 38C8.50659 38 0 29.4934 0 19Z" fill="white" fill-opacity="0.9"/>
<path d="M19 38V37C9.05888 37 1 28.9411 1 19H0H-1C-1 30.0457 7.95431 39 19 39V38ZM38 19H37C37 28.9411 28.9411 37 19 37V38V39C30.0457 39 39 30.0457 39 19H38ZM19 0V1C28.9411 1 37 9.05888 37 19H38H39C39 7.95431 30.0457 -1 19 -1V0ZM19 0V-1C7.95431 -1 -1 7.95431 -1 19H0H1C1 9.05888 9.05888 1 19 1V0Z" fill="white" fill-opacity="0.2" mask="url(#path-1-inside-1_212_2895)"/>
<path d="M24.8333 18.9998H13.1667M13.1667 18.9998L19 13.1665M13.1667 18.9998L19 24.8332" stroke="#374151" stroke-width="1.66667"/>
</svg>
