<svg width="38" height="38" viewBox="0 0 38 38" fill="none" xmlns="http://www.w3.org/2000/svg">
<mask id="path-1-inside-1_349_13" fill="white">
<path d="M0 19C0 8.50659 8.50659 0 19 0V0C29.4934 0 38 8.50659 38 19V19C38 29.4934 29.4934 38 19 38V38C8.50659 38 0 29.4934 0 19V19Z"/>
</mask>
<path d="M0 19C0 8.50659 8.50659 0 19 0V0C29.4934 0 38 8.50659 38 19V19C38 29.4934 29.4934 38 19 38V38C8.50659 38 0 29.4934 0 19V19Z" fill="white" fill-opacity="0.9"/>
<path d="M19 38V37C9.05887 37 1 28.9411 1 19H0H-1C-1 30.0457 7.95431 39 19 39V38ZM38 19H37C37 28.9411 28.9411 37 19 37V38V39C30.0457 39 39 30.0457 39 19H38ZM19 0V1C28.9411 1 37 9.05887 37 19H38H39C39 7.95431 30.0457 -1 19 -1V0ZM19 0V-1C7.95431 -1 -1 7.95431 -1 19H0H1C1 9.05887 9.05887 1 19 1V0Z" fill="white" fill-opacity="0.2" mask="url(#path-1-inside-1_349_13)"/>
<path d="M11.5 12.3333C11.5 12.1123 11.5878 11.9004 11.7441 11.7441C11.9004 11.5878 12.1123 11.5 12.3333 11.5H25.6667C25.8877 11.5 26.0996 11.5878 26.2559 11.7441C26.4122 11.9004 26.5 12.1123 26.5 12.3333V14.4883C26.5 14.7093 26.4121 14.9213 26.2558 15.0775L20.9108 20.4225C20.7545 20.5787 20.6667 20.7907 20.6667 21.0117V23.1667L17.3333 26.5V21.0117C17.3333 20.7907 17.2455 20.5787 17.0892 20.4225L11.7442 15.0058C11.5879 14.8496 11.5 14.6377 11.5 14.4167V12.3333Z" stroke="#374151" stroke-width="1.66667"/>
</svg>
