<svg width="18" height="14" viewBox="0 0 18 14" fill="none" xmlns="http://www.w3.org/2000/svg">
<path d="M0 2C0 0.89543 0.895431 0 2 0H16C17.1046 0 18 0.895431 18 2V12C18 13.1046 17.1046 14 16 14H2C0.89543 14 0 13.1046 0 12V2Z" fill="url(#paint0_linear_300_81)"/>
<path d="M2 0.5H16C16.8284 0.5 17.5 1.17157 17.5 2V12C17.5 12.8284 16.8284 13.5 16 13.5H2C1.17157 13.5 0.5 12.8284 0.5 12V2C0.5 1.17157 1.17157 0.5 2 0.5Z" stroke="black" stroke-opacity="0.1"/>
<rect width="6.38" height="6.44" transform="translate(1 1)" fill="#3C3B6E"/>
<defs>
<linearGradient id="paint0_linear_300_81" x1="9" y1="0" x2="9" y2="14" gradientUnits="userSpaceOnUse">
<stop stop-color="#B22234"/>
<stop offset="0.077" stop-color="#B22234"/>
<stop offset="0.077" stop-color="white"/>
<stop offset="0.154" stop-color="white"/>
<stop offset="0.154" stop-color="#B22234"/>
<stop offset="0.231" stop-color="#B22234"/>
<stop offset="0.231" stop-color="white"/>
<stop offset="0.308" stop-color="white"/>
<stop offset="0.308" stop-color="#B22234"/>
<stop offset="0.385" stop-color="#B22234"/>
<stop offset="0.385" stop-color="white"/>
<stop offset="0.462" stop-color="white"/>
<stop offset="0.462" stop-color="#B22234"/>
<stop offset="0.539" stop-color="#B22234"/>
<stop offset="0.539" stop-color="white"/>
<stop offset="0.616" stop-color="white"/>
<stop offset="0.616" stop-color="#B22234"/>
<stop offset="0.693" stop-color="#B22234"/>
<stop offset="0.693" stop-color="white"/>
<stop offset="0.77" stop-color="white"/>
<stop offset="0.77" stop-color="#B22234"/>
<stop offset="0.847" stop-color="#B22234"/>
<stop offset="0.847" stop-color="white"/>
<stop offset="0.924" stop-color="white"/>
<stop offset="0.924" stop-color="#B22234"/>
<stop offset="1" stop-color="#B22234"/>
</linearGradient>
</defs>
</svg>
