<svg width="18" height="18" viewBox="0 0 18 18" fill="none" xmlns="http://www.w3.org/2000/svg">
<path d="M18 13.5C18 14.0304 17.7893 14.5391 17.4142 14.9142C17.0391 15.2893 16.5304 15.5 16 15.5H2C1.46957 15.5 0.960859 15.2893 0.585786 14.9142C0.210714 14.5391 0 14.0304 0 13.5V4.5C0 3.96957 0.210714 3.46086 0.585786 3.08579C0.960859 2.71071 1.46957 2.5 2 2.5H16C16.5304 2.5 17.0391 2.71071 17.4142 3.08579C17.7893 3.46086 18 3.96957 18 4.5V13.5Z" fill="#CE1126"/>
<path d="M16 2.5H2C1.46957 2.5 0.960859 2.71071 0.585786 3.08579C0.210714 3.46086 0 3.96957 0 4.5L0 9H18V4.5C18 3.96957 17.7893 3.46086 17.4142 3.08579C17.0391 2.71071 16.5304 2.5 16 2.5Z" fill="#0038A8"/>
<path d="M0.6565 14.9725L9.5155 9.03201L0.665 3.02051C0.456478 3.20659 0.289491 3.43451 0.174914 3.68943C0.0603361 3.94434 0.000737832 4.22053 0 4.50001L0 13.5C0 14.0855 0.256 14.607 0.6565 14.9725Z" fill="#EEEEEE"/>
<path d="M8.035 8.25997L8.0565 8.83647L8.614 8.98347L8.0725 9.18147L8.105 9.75747L7.749 9.30347L7.2115 9.51197L7.533 9.03347L7.168 8.58697L7.723 8.74497L8.035 8.25997ZM0.801496 3.99097L1.2345 4.37247L1.7245 4.06897L1.4955 4.59847L1.9355 4.97097L1.3615 4.91697L1.143 5.44997L1.0175 4.88747L0.441996 4.84447L0.938496 4.55147L0.801496 3.99097ZM1.017 12.5975L1.304 13.0975L1.866 12.969L1.479 13.396L1.776 13.8905L1.25 13.6545L0.871496 14.09L0.932996 13.516L0.402496 13.291L0.966496 13.172L1.017 12.5975ZM5 8.99997C5 9.19695 4.9612 9.392 4.88582 9.57399C4.81043 9.75598 4.69994 9.92134 4.56066 10.0606C4.42137 10.1999 4.25601 10.3104 4.07402 10.3858C3.89203 10.4612 3.69698 10.5 3.5 10.5C3.30301 10.5 3.10796 10.4612 2.92597 10.3858C2.74398 10.3104 2.57862 10.1999 2.43934 10.0606C2.30005 9.92134 2.18956 9.75598 2.11418 9.57399C2.03879 9.392 2 9.19695 2 8.99997C2 8.60214 2.15803 8.22061 2.43934 7.93931C2.72064 7.658 3.10217 7.49997 3.5 7.49997C3.89782 7.49997 4.27935 7.658 4.56066 7.93931C4.84196 8.22061 5 8.60214 5 8.99997Z" fill="#FCD116"/>
<path d="M3.7975 6.29856L3.719 7.62256L3.597 7.60456L3.6395 6.06756L3.5 5.97656L3.3605 6.06756L3.403 7.60456L3.281 7.62256L3.2025 6.29856L3.026 6.40756L3.1905 7.75606H3.8095L3.974 6.40756L3.7975 6.29856ZM3.2025 11.7016L3.281 10.3776L3.403 10.3956L3.36 11.9326L3.5 12.0236L3.6395 11.9326L3.597 10.3956L3.719 10.3776L3.7975 11.7016L3.974 11.5926L3.8095 10.2436H3.1905L3.026 11.5926L3.2025 11.7016ZM1.379 10.6996L2.3715 9.82006L2.4445 9.91806L1.328 10.9746L1.362 11.1381L1.5255 11.1726L2.582 10.0551L2.6805 10.1286L1.8 11.1211L2.002 11.1681L2.8395 10.0986L2.6205 9.87956L2.4015 9.66056L1.332 10.4981L1.379 10.6996ZM5.621 7.30006L4.6285 8.18056L4.5555 8.08206L5.672 7.02556L5.638 6.86206L5.4745 6.82756L4.418 7.94456L4.3195 7.87156L5.2 6.87906L4.998 6.83206L4.1605 7.90156L4.3795 8.12056L4.5985 8.33956L5.668 7.50206L5.621 7.30006ZM0.798501 8.70256L2.123 8.78106L2.1045 8.90306L0.567501 8.86006L0.476501 9.00006L0.567501 9.13956L2.1045 9.09706L2.123 9.21906L0.798501 9.29756L0.907501 9.47406L2.256 9.30956V8.69006L0.907501 8.52606L0.798501 8.70256ZM6.2015 9.29756L4.877 9.21906L4.8955 9.09706L6.4325 9.13956L6.5235 9.00006L6.4325 8.86006L4.8955 8.90306L4.877 8.78106L6.2015 8.70256L6.0925 8.52606L4.7435 8.69006V9.30956L6.0925 9.47406L6.2015 9.29756ZM1.8 6.87906L2.6805 7.87156L2.582 7.94456L1.5255 6.82756L1.362 6.86206L1.328 7.02556L2.4445 8.08206L2.3715 8.18056L1.379 7.30006L1.332 7.50206L2.4015 8.33956L2.6205 8.12056L2.8395 7.90156L2.002 6.83206L1.8 6.87906ZM5.2 11.1211L4.3195 10.1286L4.418 10.0551L5.4745 11.1726L5.638 11.1381L5.672 10.9746L4.5555 9.91806L4.6285 9.82006L5.621 10.6996L5.668 10.4981L4.5985 9.66056L4.3795 9.87956L4.1605 10.0986L4.998 11.1681L5.2 11.1211Z" fill="#FCD116"/>
</svg>
