<svg width="18" height="18" viewBox="0 0 18 18" fill="none" xmlns="http://www.w3.org/2000/svg">
<path d="M16 2.5H2C1.46957 2.5 0.960859 2.71071 0.585786 3.08579C0.210714 3.46086 0 3.96957 0 4.5L0 13.5C0 14.0304 0.210714 14.5391 0.585786 14.9142C0.960859 15.2893 1.46957 15.5 2 15.5H16C16.5304 15.5 17.0391 15.2893 17.4142 14.9142C17.7893 14.5391 18 14.0304 18 13.5V4.5C18 3.96957 17.7893 3.46086 17.4142 3.08579C17.0391 2.71071 16.5304 2.5 16 2.5Z" fill="#DA251D"/>
<path d="M9.87651 8.01855L9.00001 5.32104L8.12351 8.01855H5.28751L7.58201 9.68505L6.70551 12.3825L9.00001 10.7155L11.2945 12.3825L10.418 9.68505L12.7125 8.01855H9.87651Z" fill="#FFFF00"/>
</svg>
