<svg width="18" height="18" viewBox="0 0 18 18" fill="none" xmlns="http://www.w3.org/2000/svg">
<path d="M16 2.5H2C1.46957 2.5 0.960859 2.71071 0.585786 3.08579C0.210714 3.46086 0 3.96957 0 4.5L0 13.5C0 14.0304 0.210714 14.5391 0.585786 14.9142C0.960859 15.2893 1.46957 15.5 2 15.5H16C16.5304 15.5 17.0391 15.2893 17.4142 14.9142C17.7893 14.5391 18 14.0304 18 13.5V4.5C18 3.96957 17.7893 3.46086 17.4142 3.08579C17.0391 2.71071 16.5304 2.5 16 2.5Z" fill="#006C35"/>
<path d="M4.45949 7.02498C4.77549 7.05498 4.60099 6.49048 4.71549 6.38798C4.73699 6.33748 4.77699 6.33698 4.77999 6.40098V6.87998C4.77699 7.03598 4.87949 7.08148 4.95899 7.11398C5.04199 7.10748 5.09699 7.11048 5.12949 7.19098L5.16849 8.01998C5.16849 8.01998 5.36049 8.07498 5.36949 7.55348C5.37899 7.24748 5.30849 6.99148 5.34999 6.93198C5.35149 6.87348 5.42599 6.86998 5.47799 6.89848C5.56049 6.95648 5.59749 7.02848 5.72549 6.99998C5.92099 6.94648 6.03799 6.85148 6.04099 6.70148C6.02949 6.55898 6.01349 6.41648 5.95199 6.27398C5.96049 6.24798 5.91449 6.18098 5.92299 6.15498C5.95799 6.20998 6.01149 6.20548 6.02349 6.15498C5.99049 6.04548 5.93899 5.94048 5.85499 5.89498C5.78599 5.83398 5.68499 5.84648 5.64799 5.97348C5.63099 6.11948 5.70099 6.29348 5.80699 6.43498C5.82949 6.49048 5.86149 6.58248 5.84749 6.66548C5.79099 6.69748 5.73399 6.68448 5.68699 6.63448C5.68699 6.63448 5.53149 6.51798 5.53149 6.49198C5.57299 6.22798 5.54099 6.19798 5.51799 6.12498C5.50199 6.02398 5.45399 5.99148 5.41499 5.92248C5.37599 5.88148 5.32349 5.88148 5.29849 5.92248C5.22949 6.04148 5.26149 6.29748 5.31149 6.41198C5.34699 6.51698 5.40199 6.58348 5.37599 6.58348C5.35449 6.64298 5.31049 6.62898 5.27849 6.56048C5.23249 6.41848 5.22349 6.20698 5.22349 6.11148C5.20949 5.99348 5.19449 5.74098 5.11699 5.67698C5.06949 5.61248 4.99899 5.64348 4.97449 5.70298C4.96949 5.81998 4.96849 5.93748 4.98199 6.04598C5.03499 6.23548 5.05199 6.40248 5.07799 6.59698C5.08499 6.85748 4.92749 6.70998 4.93449 6.58098C4.97099 6.41348 4.96149 6.14948 4.92899 6.08248C4.90349 6.01598 4.87299 5.99898 4.81099 6.00998C4.76199 6.00598 4.63499 6.14498 4.59899 6.37498C4.59899 6.37498 4.56849 6.49348 4.55549 6.59898C4.53799 6.71798 4.45999 6.80198 4.40499 6.58248C4.35749 6.42298 4.32849 6.02948 4.24899 6.12148C4.22599 6.42898 4.19849 6.96998 4.45949 7.02498Z" fill="white"/>
<path d="M4.935 7.24951C4.675 7.25451 4.2945 7.59101 4.284 7.77751C4.558 7.64551 4.8275 7.51851 5.1065 7.38251C5.0615 7.31501 5.104 7.25451 4.935 7.24951Z" fill="white"/>
<path d="M6.3685 8.25791C6.489 7.85641 6.349 7.56041 6.4145 7.56191C6.553 7.71141 6.747 7.58191 6.7895 7.52991C6.808 7.50391 6.8535 7.48691 6.8855 7.52091C6.994 7.59891 7.185 7.56191 7.2245 7.42491C7.24952 7.28732 7.26489 7.14814 7.2705 7.00841C7.182 7.03591 7.116 7.05441 7.11 7.09091L7.0915 7.20991C7.084 7.24841 7.0075 7.24991 7.0045 7.20091C6.971 7.04841 6.832 7.02841 6.748 7.26491C6.6915 7.31091 6.5895 7.31991 6.5785 7.25141C6.592 7.09291 6.528 7.07141 6.4 7.14591C6.359 6.83141 6.3175 6.53091 6.2765 6.21641C6.33 6.21491 6.379 6.25441 6.4275 6.19341C6.374 6.02691 6.261 5.68691 6.1985 5.66241C6.168 5.62541 6.142 5.64841 6.1025 5.65791C6.0355 5.67941 5.973 5.73741 5.9925 5.84991C6.072 6.33241 6.124 6.69991 6.203 7.18241C6.215 7.23891 6.168 7.31341 6.107 7.30591C6.0035 7.23591 5.9775 7.09391 5.8005 7.09991C5.672 7.10141 5.5255 7.24041 5.5075 7.37491C5.486 7.48141 5.4785 7.59741 5.5075 7.69091C5.5975 7.79891 5.706 7.78841 5.8005 7.76391C5.878 7.73191 5.9425 7.65391 5.9695 7.67241C5.988 7.69491 5.974 7.95141 5.6035 8.14841C5.379 8.24891 5.2005 8.27191 5.1045 8.08891C5.045 7.97441 5.109 7.53941 4.9625 7.64041C4.529 8.75791 5.9775 8.91291 6.1395 7.68641C6.155 7.63591 6.216 7.58541 6.2265 7.66791C6.193 8.77891 5.106 8.85541 4.9215 8.50591C4.8755 8.42341 4.862 8.24041 4.8575 8.13041C4.83 7.91191 4.7155 7.99591 4.6975 8.21241C4.679 8.33291 4.684 8.36691 4.684 8.48241C4.7415 9.35991 6.1415 8.98291 6.3685 8.25791ZM5.8285 7.49891C5.8195 7.51591 5.78 7.50891 5.751 7.50891C5.718 7.50741 5.7025 7.50191 5.6825 7.47541C5.6735 7.44541 5.7015 7.41691 5.714 7.39441C5.7295 7.36791 5.813 7.34041 5.8425 7.41441C5.84785 7.42847 5.84938 7.4437 5.84692 7.45855C5.84446 7.4734 5.8381 7.48732 5.8285 7.49891Z" fill="white"/>
<path d="M6.80099 6.50444C6.88799 6.47244 7.30049 6.00094 7.30049 6.00094C7.27899 5.98244 7.25999 5.96894 7.23849 5.95044C7.21549 5.93044 7.21799 5.91044 7.23849 5.89094C7.34049 5.83144 7.30799 5.70094 7.25449 5.64144C7.21984 5.62465 7.18177 5.6161 7.14326 5.61645C7.10475 5.61679 7.06684 5.62603 7.03249 5.64344C6.96099 5.71194 6.94399 5.82194 7.00049 5.89094C7.05549 5.91694 7.11049 5.97244 7.07399 6.00294C6.90549 6.18294 6.44349 6.49344 6.49699 6.50444C6.50849 6.51944 6.79199 6.51894 6.80099 6.50444ZM7.10649 5.76394C7.13299 5.75744 7.16699 5.78094 7.18299 5.81594C7.19899 5.85094 7.19049 5.88444 7.16449 5.89094H7.16349C7.13749 5.89744 7.10349 5.87394 7.08749 5.83894C7.07199 5.80344 7.08049 5.77044 7.10649 5.76394ZM4.43099 8.62894C4.36299 8.76744 4.33449 8.67244 4.32849 8.59494C4.32087 8.46478 4.32741 8.33418 4.34799 8.20544C4.36499 8.09544 4.34799 8.12894 4.31299 8.17344C4.15849 8.41944 4.14499 8.78744 4.23049 8.89694C4.27549 8.94894 4.34999 8.97194 4.40549 8.95494C4.50249 8.91294 4.54499 8.71594 4.52199 8.64444C4.48899 8.59394 4.46349 8.58594 4.43099 8.62894ZM9.52149 6.02494C9.69949 6.26394 9.86849 6.50744 10.034 6.75544C10.0667 6.96977 10.09 7.18094 10.104 7.38894C10.1315 7.79094 10.1395 8.22594 10.1145 8.64944C10.1895 8.65244 10.311 8.52744 10.353 8.34494C10.3805 8.09244 10.343 7.64294 10.3405 7.49394C10.3372 7.40055 10.3327 7.30721 10.327 7.21394C10.524 7.53594 10.716 7.87294 10.9035 8.24744C10.972 8.21544 10.957 7.83244 10.917 7.77844C10.767 7.45694 10.5605 7.13894 10.4945 7.01694C10.47 6.97194 10.3865 6.84394 10.287 6.69744C10.2781 6.58055 10.2641 6.4641 10.245 6.34844C10.214 6.13444 10.3335 6.37194 10.317 6.24744C10.2785 6.03344 10.1595 5.88894 10.0205 5.69294C9.97549 5.62944 9.97699 5.61644 9.90749 5.70844C9.88341 5.76371 9.87213 5.8237 9.87449 5.88394C9.85253 5.85222 9.82934 5.82137 9.80499 5.79144L9.57749 5.59744C9.52699 5.56144 9.40399 5.49644 9.38199 5.60444C9.3723 5.68017 9.37602 5.75701 9.39299 5.83144C9.40599 5.88494 9.48349 5.97394 9.52149 6.02494ZM9.89149 6.01294C9.90099 6.05444 9.91099 6.09594 9.91749 6.13844L9.92499 6.17894C9.90394 6.14969 9.8821 6.12101 9.85949 6.09294C9.77749 5.99594 9.84549 6.01694 9.89149 6.01294Z" fill="white"/>
<path d="M10.9595 8.34653C10.7855 8.52803 10.5345 8.75153 10.2615 8.85503C10.232 8.88803 10.3345 9.02953 10.4665 9.02953C10.688 9.00353 10.883 8.87903 11.0635 8.55153C11.112 8.47553 11.197 8.31203 11.199 8.18503C11.2155 7.44203 11.162 6.86353 11.0505 6.32653C11.043 6.28344 11.0451 6.23924 11.0565 6.19703C11.0705 6.18003 11.1195 6.19703 11.1455 6.15503C11.183 6.11603 11.045 5.79603 10.966 5.67303C10.938 5.61803 10.9285 5.58103 10.882 5.67953C10.833 5.75953 10.8005 5.89903 10.8045 6.02903C10.91 6.76053 10.9425 7.40103 11.0115 8.13253C11.017 8.20303 11.0065 8.30603 10.9595 8.34653ZM13.8745 6.49153C13.867 6.43953 13.844 6.31853 13.853 6.30303C13.867 6.26603 13.9395 6.30703 13.9655 6.26453C14.0035 6.22603 13.7785 5.93703 13.7 5.81403C13.6715 5.75903 13.662 5.72203 13.6155 5.82053C13.5665 5.90053 13.5495 6.04403 13.569 6.17003C13.6865 6.96453 13.774 7.56153 13.792 8.26603C13.7815 8.33303 13.7795 8.36903 13.748 8.45303C13.6785 8.54203 13.602 8.65303 13.5295 8.70703C13.4575 8.76053 13.304 8.81203 13.2535 8.85153C13.095 8.94403 13.0945 9.04953 13.2235 9.05303C13.4445 9.02703 13.7065 9.00903 13.887 8.73603C13.9355 8.66003 13.993 8.45353 13.9955 8.32653C14.012 7.58353 13.986 7.02853 13.8745 6.49153ZM12.199 7.11003C12.201 7.00803 12.2105 6.87303 12.216 6.78853C12.2185 6.75703 12.226 6.72153 12.256 6.71353C12.2865 6.70553 12.3405 6.74453 12.341 6.71153C12.335 6.64703 12.322 6.55103 12.2855 6.50553C12.2355 6.43153 12.103 6.44953 12.0795 6.56553C12.08 6.60853 12.0995 6.63153 12.096 6.67053C12.09 6.69253 12.067 6.70753 12.0125 6.68153C12.0215 6.67353 11.977 6.61203 11.977 6.61203C11.9345 6.58603 11.8775 6.61353 11.841 6.63703C11.8279 6.66229 11.8201 6.68994 11.8181 6.7183C11.816 6.74666 11.8197 6.77515 11.829 6.80203C11.889 6.91553 12.0985 7.10803 12.199 7.11003Z" fill="white"/>
<path d="M12.1285 6.2404L12.575 6.7869C12.6075 7.1999 12.616 7.5379 12.648 7.9509C12.6435 8.1259 12.5895 8.2784 12.538 8.3004C12.538 8.3004 12.4605 8.3454 12.4085 8.2959C12.3705 8.2804 12.219 8.0434 12.219 8.0434C12.1415 7.9724 12.0905 7.9924 12.0355 8.0434C11.8835 8.1899 11.815 8.4649 11.712 8.6539C11.685 8.6964 11.61 8.7324 11.5265 8.6509C11.315 8.3614 11.439 7.9499 11.413 8.0559C11.2245 8.2684 11.3075 8.6199 11.35 8.6959C11.412 8.8199 11.4625 8.8999 11.5835 8.9614C11.6935 9.0424 11.7795 8.9914 11.8265 8.9349C11.9375 8.8194 11.939 8.5269 11.991 8.4679C12.027 8.3614 12.1195 8.3794 12.164 8.4269C12.2051 8.4841 12.259 8.53085 12.3215 8.5634C12.425 8.6549 12.5485 8.6714 12.67 8.5879C12.753 8.5414 12.8075 8.4809 12.856 8.3614C12.91 8.2174 12.8805 7.5554 12.8695 7.1584C12.947 7.2584 13.0225 7.3629 13.099 7.4674C13.1325 7.7989 13.1515 8.1289 13.1405 8.4659C13.1325 8.5334 13.3755 8.2659 13.3735 8.1389V7.8559C13.4905 8.0319 13.6045 8.2134 13.7115 8.4054C13.7785 8.3704 13.7565 7.9929 13.714 7.9409C13.5905 7.7339 13.426 7.5184 13.3125 7.3644C13.305 7.3449 13.301 7.3229 13.292 7.3044C13.2465 7.1989 13.275 7.1139 13.2535 7.0019C13.2325 6.8894 13.238 6.7214 13.2055 6.5879C13.1965 6.5359 13.1695 6.3689 13.1775 6.3534C13.1905 6.3159 13.2405 6.3544 13.265 6.3114C13.3015 6.2714 13.1385 5.8489 13.0555 5.7279C13.0255 5.6739 12.9715 5.6924 12.9045 5.7804C12.843 5.8384 12.866 5.9704 12.8895 6.0959C12.948 6.3999 12.997 6.6914 13.039 6.9799C12.9491 6.86036 12.8582 6.74153 12.7665 6.6234L12.7625 6.6014C12.7625 6.5959 12.749 6.3394 12.737 6.2784C12.735 6.2539 12.729 6.2464 12.755 6.2494C12.7825 6.2724 12.786 6.2739 12.8035 6.2819C12.8315 6.2869 12.856 6.2394 12.8395 6.1959L12.581 5.7199C12.5605 5.6994 12.5335 5.6774 12.501 5.7254C12.4807 5.74294 12.4645 5.76467 12.4534 5.78911C12.4424 5.81354 12.4368 5.84008 12.437 5.8669C12.445 5.9794 12.4645 6.0944 12.472 6.2074L12.483 6.2684C12.4715 6.2549 12.4575 6.2379 12.4515 6.2319C12.232 6.0009 12.5525 6.1944 12.4095 6.0159C12.2885 5.8829 12.2535 5.8414 12.1495 5.7614C12.0975 5.7279 12.066 5.6639 12.049 5.7729C12.041 5.86851 12.0385 5.9645 12.0415 6.0604C12.0415 6.1064 12.088 6.1904 12.1285 6.2404ZM7.67799 6.7799C7.80399 6.8319 7.88449 6.5919 7.93649 6.3289C7.97149 6.2549 7.9985 6.2469 8.0165 6.2849C8.012 6.6349 8.04149 6.7124 8.13149 6.8189C8.33199 6.9739 8.498 6.8384 8.51149 6.8254L8.66749 6.6694C8.70199 6.6329 8.74849 6.6304 8.79749 6.6629C8.84549 6.7059 8.83899 6.7809 8.94099 6.8329C9.02699 6.8674 9.21099 6.8409 9.25349 6.7669C9.31099 6.6689 9.32499 6.6349 9.35099 6.5979C9.39199 6.5434 9.46199 6.5679 9.46199 6.5849C9.45549 6.6154 9.41449 6.6459 9.44249 6.7004C9.49149 6.7369 9.50249 6.7134 9.53149 6.7054C9.63349 6.6564 9.70949 6.4354 9.70949 6.4354C9.71399 6.3529 9.66799 6.3599 9.63799 6.3769C9.59899 6.4004 9.59649 6.4084 9.55749 6.4324C9.50749 6.4399 9.41099 6.4729 9.36349 6.3989C9.31449 6.3099 9.31349 6.1859 9.27649 6.0964C9.27649 6.0899 9.21149 5.9549 9.27199 5.9464C9.3025 5.9519 9.36699 5.9689 9.37749 5.9149C9.40899 5.8619 9.30899 5.7109 9.24099 5.6344C9.18149 5.5694 9.09899 5.5614 9.01949 5.6279C8.96349 5.6794 8.97149 5.7364 8.96049 5.7909C8.95109 5.82934 8.95094 5.86946 8.96007 5.90797C8.9692 5.94648 8.98734 5.98227 9.01299 6.0124C9.06849 6.1219 9.16999 6.2634 9.13649 6.4614C9.13649 6.4614 9.07749 6.5554 8.97399 6.5434C8.93099 6.5339 8.861 6.5154 8.82399 6.2404C8.79599 6.0319 8.83099 5.7404 8.74249 5.6039C8.71049 5.5214 8.68749 5.4419 8.60949 5.5829C8.58849 5.6384 8.49849 5.7224 8.56399 5.8959C8.61749 6.0054 8.63899 6.1839 8.61499 6.3829C8.57799 6.4394 8.56999 6.4584 8.52149 6.5149C8.45349 6.5879 8.37999 6.5694 8.32349 6.5419C8.27049 6.5064 8.22949 6.4879 8.20549 6.3749C8.20999 6.1949 8.21999 5.8999 8.18699 5.8374C8.13849 5.7404 8.05849 5.7754 8.02399 5.8049C7.85949 5.9554 7.77849 6.2089 7.72899 6.4104C7.68349 6.5574 7.63499 6.5154 7.60099 6.4559C7.51799 6.3779 7.51249 5.7694 7.41199 5.8699C7.25049 6.3269 7.50299 6.8289 7.67799 6.7799Z" fill="white"/>
<path d="M10.0685 7.76203L10.0205 7.73453L9.08001 7.73003C9.03151 7.71153 9.04601 7.69553 9.08001 7.68253C9.30451 7.65203 9.70401 7.58703 9.73051 7.20353C9.72601 7.00403 9.64451 6.87303 9.39951 6.83703C9.22001 6.85103 9.09151 7.02553 9.11201 7.21703C9.10351 7.26903 9.12901 7.37003 9.07651 7.38153C8.73101 7.41303 8.35451 7.62903 8.34201 7.78403C8.32101 7.79853 8.27401 7.75653 8.28001 7.69053C8.26326 7.40823 8.18201 7.13352 8.04251 6.88753C7.93351 6.77853 7.96751 6.81453 7.89451 6.86603C7.84751 6.92003 7.83901 6.95703 7.84151 7.06453C7.84151 7.06853 7.92951 7.31403 8.00401 7.48603C8.05351 7.66253 8.10001 7.86403 8.06651 8.05453C7.95051 8.30653 7.71701 8.53253 7.49201 8.65503C7.37601 8.69253 7.27651 8.67903 7.25201 8.65303C7.18051 8.60503 7.18401 8.51653 7.18951 8.51503C7.37901 8.38253 7.59601 8.27603 7.76601 7.91953C7.81601 7.78353 7.83101 7.70103 7.78151 7.49053C7.76811 7.41623 7.73396 7.34724 7.68301 7.29153C7.71351 7.27153 7.80101 7.33803 7.81451 7.29853C7.78924 7.18328 7.73186 7.07753 7.64901 6.99353C7.58151 6.93203 7.50801 6.92503 7.44601 6.98153C7.37601 7.02053 7.36101 7.15953 7.39451 7.28153C7.43151 7.37353 7.53201 7.38903 7.60401 7.57353C7.60401 7.57753 7.63001 7.71153 7.59301 7.76403C7.56351 7.85603 7.18101 8.15653 7.16001 8.17003C7.14951 8.18303 7.15401 8.16353 7.15251 8.11353C7.15001 8.05253 7.17701 7.90853 7.16951 7.90753C7.04501 7.98803 7.00351 8.23453 6.98101 8.30753C6.66601 8.52503 6.30951 8.68703 6.10351 8.90803C5.99601 9.07553 6.84251 8.71553 6.94101 8.67203C6.96301 8.68803 6.96051 8.76353 7.01951 8.83103C7.10751 8.95003 7.29351 9.02353 7.47601 8.97803C7.78101 8.86753 7.95751 8.65953 8.13651 8.42903C8.16201 8.39153 8.20201 8.36303 8.23901 8.39153C8.36201 8.66703 8.71751 8.86203 9.17601 8.88253C9.28251 8.75303 9.23101 8.69053 9.18801 8.66353C9.18801 8.65953 8.96151 8.57353 8.92701 8.48753C8.90601 8.40953 8.95701 8.34103 9.05901 8.28903C9.35351 8.25353 9.64301 8.21403 9.92351 8.12403C9.92651 8.03003 9.98101 7.88903 10.0185 7.82803C10.0545 7.76603 10.074 7.78453 10.0685 7.76203ZM9.29501 7.17603C9.30901 7.15253 9.35551 7.15353 9.39901 7.17903C9.44251 7.20453 9.46701 7.24403 9.45251 7.26753C9.43851 7.29153 9.39151 7.29003 9.34801 7.26453C9.30451 7.23903 9.28101 7.20003 9.29501 7.17603ZM8.91651 8.12603C8.81551 8.16053 8.71851 8.18753 8.71851 8.33353C8.75601 8.53653 8.66701 8.46703 8.61451 8.43903C8.55251 8.39453 8.37801 8.28703 8.35301 8.05503C8.34901 7.99953 8.39251 7.95303 8.46201 7.95303C8.56651 7.98153 8.72101 7.98353 8.85501 7.99753C8.96451 8.00453 9.01901 8.09053 8.91651 8.12603ZM5.43301 5.87353C5.54101 5.92553 5.74501 5.90353 5.73601 5.72853C5.73601 5.71303 5.73201 5.66103 5.73051 5.64703C5.70851 5.59553 5.64851 5.60803 5.63451 5.66153C5.63001 5.67903 5.64201 5.70703 5.62651 5.71603C5.61751 5.72503 5.58301 5.71953 5.58451 5.67153C5.58451 5.65603 5.57301 5.63953 5.56651 5.63003C5.55951 5.62553 5.55551 5.62403 5.54301 5.62403C5.52801 5.62453 5.52801 5.62853 5.52001 5.64153C5.51651 5.65403 5.51151 5.66703 5.51151 5.68153C5.50951 5.69853 5.50301 5.70453 5.49051 5.70753C5.47651 5.70753 5.47951 5.70903 5.46851 5.70153C5.46151 5.69403 5.45301 5.69103 5.45301 5.67853C5.45278 5.66393 5.45042 5.64944 5.44601 5.63553C5.43967 5.62819 5.43084 5.62336 5.41951 5.62103C5.36051 5.62103 5.35651 5.68853 5.36001 5.71453C5.35451 5.71903 5.35251 5.84003 5.43301 5.87353Z" fill="white"/>
<path d="M8.75599 7.01341C8.75599 6.99791 8.74449 6.98191 8.73799 6.97191C8.73099 6.96741 8.72699 6.96591 8.71449 6.96591C8.69949 6.96641 8.69999 6.97041 8.69149 6.98341C8.68799 6.99641 8.68299 7.00891 8.68299 7.02341C8.68149 7.04091 8.67449 7.04691 8.66199 7.04941C8.64799 7.04941 8.65099 7.05091 8.63949 7.04391C8.63249 7.03641 8.62399 7.03341 8.62399 7.02091C8.62376 7.00631 8.6214 6.99183 8.61699 6.97791C8.61066 6.97058 8.60182 6.96591 8.59049 6.96391C8.53149 6.96391 8.52749 7.03141 8.53049 7.05691C8.52599 7.06191 8.52349 7.18241 8.60399 7.21641C8.71249 7.26791 8.96999 7.23791 8.90699 7.07141C8.90591 7.04403 8.90407 7.01669 8.90149 6.98941C8.87949 6.93791 8.81899 6.95091 8.80549 7.00391C8.80149 7.02141 8.81349 7.04941 8.79749 7.05841C8.78949 7.06741 8.75449 7.06191 8.75599 7.01341ZM10.4545 6.65991C10.5625 6.71191 10.766 6.68991 10.757 6.51541C10.7559 6.48803 10.7541 6.46069 10.7515 6.43341C10.7295 6.38191 10.6695 6.39491 10.656 6.44791C10.6515 6.46541 10.6635 6.49341 10.6475 6.50241C10.6385 6.51141 10.604 6.50641 10.6055 6.45791C10.6055 6.44241 10.594 6.42591 10.5875 6.41641C10.5805 6.41191 10.5765 6.41041 10.5635 6.41041C10.5485 6.41141 10.549 6.41491 10.5405 6.42791C10.537 6.44091 10.532 6.45341 10.532 6.46791C10.53 6.48541 10.5235 6.49141 10.511 6.49391C10.497 6.49391 10.5 6.49541 10.4885 6.48841C10.4815 6.48091 10.4735 6.47791 10.4735 6.46541C10.4733 6.45064 10.471 6.43599 10.4665 6.42191C10.4598 6.41458 10.4508 6.40991 10.4395 6.40791C10.3805 6.40791 10.3765 6.47541 10.38 6.50091C10.3765 6.50591 10.374 6.62641 10.4545 6.65991ZM10.5275 5.98391C10.566 6.09191 10.498 6.19491 10.5385 6.20991C10.575 6.22691 10.627 6.09841 10.646 5.97991C10.6685 5.88391 10.6 5.68741 10.503 5.64691C10.444 5.63291 10.36 5.66791 10.387 5.74691C10.3735 5.78491 10.506 5.91391 10.5275 5.98391ZM11.525 8.51591C11.6005 8.51641 11.6875 8.34341 11.7245 8.17191C11.745 7.93591 11.7105 7.79241 11.7045 7.65341C11.6985 7.51441 11.548 6.45741 11.517 6.35241C11.4805 6.15391 11.6635 6.32591 11.6435 6.21041C11.58 6.06491 11.4225 5.85341 11.3725 5.72691C11.3425 5.67291 11.3555 5.62491 11.2885 5.71291C11.227 5.91541 11.2055 6.08041 11.229 6.20641C11.388 7.03641 11.551 7.72641 11.525 8.51591ZM13.403 6.34591C13.4205 6.39991 13.3765 6.57441 13.413 6.59041C13.4465 6.60841 13.4935 6.46991 13.511 6.34141C13.5205 6.27091 13.469 6.02491 13.3805 5.98091C13.3265 5.96591 13.25 6.00341 13.275 6.08941C13.2625 6.13091 13.3835 6.26991 13.403 6.34591ZM6.84349 8.17391C6.87599 8.18741 6.92049 8.08541 6.93749 7.99091C6.94699 7.93891 6.89699 7.75841 6.81249 7.72591C6.76049 7.71491 6.68949 7.72891 6.71149 7.80591C6.70899 7.84741 6.82649 7.89741 6.83349 7.99391C6.85049 8.03391 6.80849 8.16241 6.84349 8.17391ZM4.56549 5.86641C4.58199 5.90791 4.54899 6.04041 4.58349 6.05291C4.61499 6.06691 4.65949 5.96091 4.67599 5.86341C4.68549 5.80941 4.67799 5.62641 4.55299 5.58891C4.50149 5.57741 4.42999 5.60591 4.45349 5.67141C4.44149 5.70241 4.54699 5.80841 4.56549 5.86641ZM7.01649 6.45291C6.92099 6.50491 6.88349 6.65891 6.94349 6.74841C6.99899 6.82791 7.08699 6.79841 7.09899 6.79841C7.19299 6.80991 7.24849 6.62241 7.24849 6.62241C7.24849 6.62241 7.25149 6.56991 7.13999 6.66941C7.09299 6.67841 7.08699 6.66091 7.07549 6.63391C7.06425 6.58497 7.06935 6.53369 7.08999 6.48791C7.10599 6.44141 7.06999 6.42091 7.01649 6.45291ZM7.73749 5.87641C7.75284 5.86682 7.76602 5.85412 7.77618 5.83914C7.78633 5.82416 7.79325 5.80722 7.79649 5.78941C7.81099 5.71641 7.71899 5.82391 7.70749 5.74241C7.68699 5.66691 7.74599 5.63591 7.80199 5.56291C7.80399 5.51241 7.80299 5.47691 7.73449 5.51791C7.68649 5.55041 7.59049 5.64941 7.58749 5.76341C7.58449 5.82791 7.57249 5.82741 7.61499 5.86841C7.64549 5.91291 7.67599 5.90841 7.73749 5.87641ZM8.38699 5.91541C8.44899 5.74741 8.44899 5.67641 8.45349 5.60491C8.43449 5.49641 8.36099 5.49991 8.31249 5.62041C8.29149 5.66591 8.26699 5.90541 8.27099 5.90541C8.25449 5.97691 8.34549 6.00741 8.38699 5.91541ZM12.472 7.10691C12.472 7.10691 11.9705 7.46341 11.9585 7.47591C11.9085 7.51991 11.9335 7.67591 11.9585 7.65791C11.994 7.67191 12.4985 7.32941 12.4885 7.28941C12.512 7.29041 12.5235 7.08891 12.472 7.10691ZM12.4105 8.07391C12.444 8.09191 12.5325 7.98241 12.529 7.84591C12.539 7.77541 12.5035 7.51691 12.4155 7.47291C12.3615 7.45791 12.2895 7.50391 12.3145 7.58941C12.302 7.63041 12.3765 7.77391 12.396 7.84991C12.4135 7.90441 12.374 8.05791 12.4105 8.07391ZM9.57049 8.82191C9.57049 8.82641 9.61299 8.86291 9.66299 8.83391C9.76799 8.79341 9.83399 8.75441 9.98099 8.72191C10.0195 8.72141 10.017 8.61791 9.95599 8.61441C9.87649 8.61841 9.80249 8.62241 9.72299 8.68541C9.67399 8.69641 9.66599 8.66691 9.65499 8.63991C9.64299 8.57341 9.68249 8.52741 9.67399 8.47791C9.67699 8.48091 9.62849 8.43641 9.57899 8.46141C9.57649 8.46141 9.46849 8.53441 9.43399 8.58541C9.41249 8.60191 9.41499 8.61591 9.42149 8.64341C9.43799 8.68141 9.46749 8.66991 9.50049 8.65191C9.54449 8.64591 9.56549 8.67491 9.56199 8.72741C9.54099 8.79391 9.57049 8.81841 9.57049 8.82191ZM12.846 8.90491C12.8295 8.93341 12.8185 8.97641 12.8695 8.98991C12.9635 9.01641 13.18 8.87541 13.18 8.87291C13.215 8.84641 13.2035 8.79691 13.2005 8.79691C13.18 8.77341 13.134 8.78691 13.103 8.78341C13.0885 8.78341 13.0395 8.77591 13.063 8.73291C13.0795 8.70972 13.0926 8.6843 13.102 8.65741C13.1165 8.62491 13.104 8.60341 13.051 8.58591C12.9975 8.57591 12.976 8.58091 12.9165 8.58591C12.8845 8.59291 12.8735 8.60691 12.8675 8.64591C12.87 8.70491 12.9055 8.70191 12.9425 8.72541C12.964 8.75291 12.978 8.77791 12.941 8.82241C12.906 8.85491 12.8815 8.87291 12.846 8.90491ZM12.75 11.4999H12V11.2499C12 11.1836 11.9737 11.12 11.9268 11.0731C11.8799 11.0262 11.8163 10.9999 11.75 10.9999C11.6837 10.9999 11.6201 11.0262 11.5732 11.0731C11.5263 11.12 11.5 11.1836 11.5 11.2499V11.4999H5.49999C5.49999 11.4999 5.49999 11.9999 6.99999 11.9999H11.5V12.2499C11.5 12.3162 11.5263 12.3798 11.5732 12.4267C11.6201 12.4736 11.6837 12.4999 11.75 12.4999C11.8163 12.4999 11.8799 12.4736 11.9268 12.4267C11.9737 12.3798 12 12.3162 12 12.2499V11.9999H12.5V12.2499C12.5 12.3162 12.5263 12.3798 12.5732 12.4267C12.6201 12.4736 12.6837 12.4999 12.75 12.4999C12.8163 12.4999 12.8799 12.4736 12.9268 12.4267C12.9737 12.3798 13 12.3162 13 12.2499V11.7499C13 11.6836 12.9737 11.62 12.9268 11.5731C12.8799 11.5262 12.8163 11.4999 12.75 11.4999Z" fill="white"/>
</svg>
