<svg width="18" height="18" viewBox="0 0 18 18" fill="none" xmlns="http://www.w3.org/2000/svg">
<path d="M18 12.0938C18 13.8023 17.0513 15.1875 15.1875 15.1875H2.8125C0.948656 15.1875 0 13.8023 0 12.0938V5.90625C0 4.19766 0.948656 2.8125 2.8125 2.8125H15.1875C17.0513 2.8125 18 4.19766 18 5.90625V12.0938Z" fill="#E6E7E8"/>
<path d="M9.71016 8.05671C10.0203 7.9204 10.3389 7.91346 10.6661 8.0359C11.0096 8.16471 11.2451 8.36928 11.3726 8.64959C11.5005 8.93046 11.516 9.27771 11.419 9.69134C11.6461 8.96646 11.6198 8.29699 11.34 7.68293C11.061 7.06981 10.5863 6.63668 9.91547 6.38609C9.26156 6.14028 8.60991 6.16306 7.96106 6.45106C7.31194 6.73981 6.86653 7.20659 6.62485 7.8514C6.49435 8.20156 6.49885 8.53878 6.64116 8.86306C6.78291 9.18743 7.023 9.41299 7.36144 9.53974C7.68881 9.66181 8.00794 9.65571 8.31881 9.52146C8.63016 9.38646 8.85572 9.15696 8.99635 8.83043L9.03094 8.74859C9.17363 8.42365 9.40003 8.19303 9.71016 8.05671Z" fill="#EC1C24"/>
<path d="M8.33371 9.48632C8.02303 9.62282 7.70456 9.62995 7.37831 9.5077C7.03443 9.37888 6.79874 9.17413 6.67124 8.89345C6.54393 8.61295 6.52827 8.26598 6.62427 7.85254C6.39796 8.57685 6.42449 9.24595 6.70387 9.85982C6.98324 10.4739 7.45799 10.9064 8.12812 11.1572C8.78231 11.4022 9.43396 11.3797 10.0834 11.0925C10.7317 10.8037 11.1774 10.3368 11.4185 9.69219C11.5505 9.34194 11.5454 9.00482 11.4033 8.68082C11.2611 8.35645 11.0207 8.13079 10.6819 8.00385C10.3554 7.88141 10.0367 7.88751 9.72562 8.02213C9.41456 8.15695 9.18871 8.3871 9.04809 8.7126L9.01321 8.79473C8.8709 9.11873 8.64365 9.34991 8.33371 9.48632Z" fill="#1B75BB"/>
<path d="M6.76124 4.34556C6.77911 4.36394 6.78911 4.38856 6.78911 4.41419C6.78911 4.43982 6.77911 4.46444 6.76124 4.48281L5.04618 6.19731C5.03722 6.20631 5.02658 6.21345 5.01487 6.21833C5.00315 6.22321 4.99059 6.22574 4.97789 6.22576C4.9652 6.22579 4.95263 6.22332 4.94089 6.21848C4.92915 6.21365 4.91849 6.20655 4.90949 6.1976C4.9005 6.18864 4.89336 6.178 4.88848 6.16628C4.88359 6.15457 4.88107 6.142 4.88104 6.12931C4.88102 6.11662 4.88349 6.10404 4.88832 6.09231C4.89316 6.08057 4.90025 6.0699 4.90921 6.06091L6.62399 4.34585C6.63297 4.33678 6.64364 4.32958 6.65541 4.32465C6.66718 4.31973 6.6798 4.31718 6.69256 4.31715C6.70531 4.31713 6.71795 4.31962 6.72974 4.3245C6.74152 4.32938 6.75223 4.33653 6.76124 4.34556ZM7.07062 4.65466C7.07966 4.66363 7.08683 4.67429 7.09173 4.68605C7.09662 4.6978 7.09914 4.71041 7.09914 4.72314C7.09914 4.73588 7.09662 4.74848 7.09173 4.76024C7.08683 4.77199 7.07966 4.78266 7.07062 4.79163L5.35668 6.50641C5.33844 6.52454 5.31377 6.53473 5.28805 6.53473C5.26234 6.53473 5.23766 6.52454 5.21943 6.50641C5.21024 6.49749 5.20294 6.48683 5.19795 6.47504C5.19297 6.46325 5.1904 6.45058 5.1904 6.43778C5.1904 6.42498 5.19297 6.41231 5.19795 6.40053C5.20294 6.38874 5.21024 6.37807 5.21943 6.36916L6.93421 4.65466C6.9523 4.63657 6.97683 4.62641 7.00241 4.62641C7.02799 4.62641 7.05253 4.63657 7.07062 4.65466ZM7.39124 4.97556C7.40043 4.98448 7.40773 4.99514 7.41272 5.00693C7.4177 5.01872 7.42027 5.03139 7.42027 5.04419C7.42027 5.05699 7.4177 5.06966 7.41272 5.08145C7.40773 5.09323 7.40043 5.1039 7.39124 5.11281L5.67618 6.82788C5.66728 6.83693 5.65666 6.84413 5.64495 6.84904C5.63324 6.85395 5.62067 6.85648 5.60798 6.85648C5.59528 6.85648 5.58271 6.85395 5.571 6.84904C5.55929 6.84413 5.54867 6.83693 5.53977 6.82788C5.52155 6.80963 5.51132 6.7849 5.51132 6.75911C5.51132 6.73332 5.52155 6.70859 5.53977 6.69035L7.25427 4.97556C7.26324 4.96652 7.27391 4.95935 7.28566 4.95445C7.29742 4.94956 7.31002 4.94704 7.32276 4.94704C7.33549 4.94704 7.3481 4.94956 7.35985 4.95445C7.37161 4.95935 7.38227 4.96652 7.39124 4.97556ZM12.0966 5.24416C12.1371 5.21238 12.1753 5.17778 12.2141 5.14347L11.4165 4.34556C11.3983 4.32736 11.3736 4.31714 11.3479 4.31714C11.3221 4.31714 11.2974 4.32736 11.2792 4.34556C11.261 4.36376 11.2508 4.38845 11.2508 4.41419C11.2508 4.43993 11.261 4.46461 11.2792 4.48281L12.071 5.27425C12.0776 5.26279 12.0863 5.2526 12.0966 5.24416ZM13.1316 6.06063L12.3573 5.28606C12.3092 5.3291 12.2602 5.37213 12.2093 5.41206L12.9943 6.19703C13.0128 6.21303 13.0367 6.22144 13.0611 6.22059C13.0856 6.21974 13.1088 6.20968 13.1261 6.19244C13.1435 6.1752 13.1537 6.15203 13.1547 6.12759C13.1557 6.10315 13.1474 6.07923 13.1316 6.06063ZM12.8225 6.50528C12.8043 6.5234 12.7796 6.53358 12.754 6.53358C12.7283 6.53358 12.7037 6.5234 12.6855 6.50528L10.9704 4.7905C10.9608 4.78163 10.9531 4.77091 10.9478 4.75898C10.9424 4.74706 10.9395 4.73417 10.9393 4.7211C10.939 4.70803 10.9414 4.69504 10.9463 4.68291C10.9512 4.67079 10.9585 4.65978 10.9677 4.65054C10.977 4.64131 10.988 4.63404 11.0001 4.62917C11.0123 4.6243 11.0253 4.62194 11.0383 4.62222C11.0514 4.6225 11.0643 4.62541 11.0762 4.63079C11.0881 4.63618 11.0988 4.64391 11.1077 4.65353L12.8225 6.36803C12.8315 6.37704 12.8386 6.38774 12.8435 6.39952C12.8484 6.41129 12.8509 6.42391 12.8509 6.43666C12.8509 6.4494 12.8484 6.46202 12.8435 6.4738C12.8386 6.48557 12.8315 6.49627 12.8225 6.50528ZM11.4303 5.88485C11.4803 5.84603 11.5222 5.79935 11.5611 5.749L10.7873 4.97556C10.7785 4.96596 10.7677 4.95825 10.7558 4.95289C10.7439 4.94753 10.731 4.94464 10.7179 4.94439C10.7049 4.94414 10.6919 4.94653 10.6797 4.95142C10.6676 4.95631 10.6566 4.96361 10.6474 4.97286C10.6381 4.98212 10.6309 4.99314 10.626 5.00528C10.6211 5.01741 10.6188 5.0304 10.619 5.04347C10.6193 5.05655 10.6222 5.06943 10.6276 5.08134C10.633 5.09326 10.6407 5.10396 10.6504 5.11281L11.4275 5.88935C11.4275 5.88878 11.4284 5.88728 11.4303 5.88485ZM12.5016 6.69035L11.7045 5.89328C11.6632 5.94391 11.618 5.98985 11.5686 6.0311L12.3646 6.8276C12.3735 6.83674 12.3841 6.844 12.3959 6.84896C12.4077 6.85393 12.4203 6.85648 12.4331 6.85648C12.4458 6.85648 12.4585 6.85393 12.4702 6.84896C12.482 6.844 12.4926 6.83674 12.5016 6.8276C12.5106 6.81858 12.5177 6.80789 12.5226 6.79611C12.5275 6.78434 12.53 6.77172 12.53 6.75897C12.53 6.74622 12.5275 6.7336 12.5226 6.72183C12.5177 6.71005 12.5106 6.69936 12.5016 6.69035ZM12.0819 12.2844L11.3124 13.0545C11.2943 13.0727 11.2841 13.0973 11.2841 13.123C11.2841 13.1486 11.2943 13.1733 11.3124 13.1914C11.3214 13.2005 11.3321 13.2077 11.3438 13.2125C11.3556 13.2174 11.3682 13.22 11.3809 13.22C11.3936 13.22 11.4063 13.2174 11.418 13.2125C11.4298 13.2077 11.4404 13.2005 11.4494 13.1914L12.2136 12.4267C12.1701 12.3789 12.1262 12.3315 12.0819 12.2844ZM13.1645 11.34C13.1461 11.3219 13.1213 11.3119 13.0955 11.312C13.0698 11.3122 13.0451 11.3225 13.0269 11.3408L12.2256 12.1415L12.3576 12.2838L13.1645 11.4775C13.1824 11.4591 13.1925 11.4344 13.1925 11.4087C13.1925 11.383 13.1824 11.3584 13.1645 11.34ZM11.7813 11.968L11.0031 12.7454C10.9852 12.7638 10.9752 12.7884 10.9752 12.814C10.9752 12.8396 10.9852 12.8643 11.0031 12.8826C11.0213 12.9009 11.0461 12.9111 11.072 12.9111C11.0978 12.9111 11.1226 12.9009 11.1409 12.8826L11.9149 12.1081C11.8699 12.0608 11.8263 12.0136 11.7813 11.968ZM12.8548 11.0306C12.8459 11.0216 12.8353 11.0144 12.8236 11.0095C12.8119 11.0047 12.7994 11.0021 12.7867 11.0021C12.7741 11.0021 12.7615 11.0047 12.7499 11.0095C12.7382 11.0144 12.7276 11.0216 12.7187 11.0306L11.925 11.8237C11.9706 11.8698 12.0139 11.9168 12.0591 11.9638L12.8551 11.1676C12.8642 11.1586 12.8715 11.148 12.8764 11.1362C12.8813 11.1244 12.8839 11.1118 12.8838 11.099C12.8838 11.0863 12.8812 11.0736 12.8762 11.0619C12.8713 11.0501 12.864 11.0395 12.8548 11.0306ZM11.4469 11.6603L10.6819 12.4245C10.664 12.4428 10.654 12.4675 10.654 12.4931C10.654 12.5187 10.664 12.5433 10.6819 12.5617C10.7002 12.58 10.7249 12.5902 10.7508 12.5902C10.7766 12.5902 10.8014 12.58 10.8197 12.5617L11.5897 11.7905C11.5425 11.7472 11.4969 11.7011 11.4469 11.6603ZM11.7349 11.6465L12.5339 10.8464C12.5431 10.8375 12.5504 10.8268 12.5554 10.815C12.5604 10.8032 12.5629 10.7906 12.5629 10.7778C12.5629 10.765 12.5604 10.7523 12.5554 10.7405C12.5504 10.7287 12.5431 10.718 12.5339 10.7091C12.525 10.7001 12.5144 10.6929 12.5027 10.688C12.491 10.6831 12.4784 10.6805 12.4657 10.6805C12.453 10.6805 12.4404 10.6831 12.4287 10.688C12.417 10.6929 12.4064 10.7001 12.3975 10.7091L11.5911 11.5155C11.6415 11.5574 11.6871 11.6027 11.7349 11.6465ZM5.97599 12.2928C5.93549 12.3243 5.89752 12.3592 5.85815 12.3935L6.65634 13.1914C6.66524 13.2005 6.67587 13.2078 6.68761 13.2127C6.69934 13.2176 6.71195 13.2202 6.72468 13.2202C6.73741 13.2202 6.75001 13.2176 6.76175 13.2127C6.77349 13.2078 6.78412 13.2005 6.79302 13.1914C6.80217 13.1825 6.80943 13.1719 6.81439 13.1601C6.81935 13.1484 6.82191 13.1357 6.82191 13.123C6.82191 13.1102 6.81935 13.0976 6.81439 13.0858C6.80943 13.074 6.80217 13.0634 6.79302 13.0545L6.00187 12.2625C5.99512 12.2741 5.98636 12.2843 5.97599 12.2928ZM4.94184 11.4764L5.71584 12.2509C5.76421 12.2082 5.8123 12.1649 5.86349 12.1252L5.07852 11.34C5.06008 11.3237 5.03613 11.3151 5.01155 11.3158C4.98697 11.3166 4.9636 11.3267 4.94619 11.3441C4.92879 11.3614 4.91865 11.3848 4.91784 11.4094C4.91703 11.4339 4.92561 11.4579 4.94184 11.4764ZM7.10155 12.7462L6.31996 11.9646C6.27693 12.0043 6.23446 12.0451 6.18946 12.0822C6.18355 12.0873 6.17765 12.0892 6.1723 12.0923L6.96402 12.8835C6.97303 12.8925 6.98374 12.8997 6.99552 12.9046C7.0073 12.9095 7.01993 12.912 7.03269 12.912C7.04545 12.912 7.05808 12.9095 7.06987 12.9046C7.08167 12.8998 7.09238 12.8926 7.10141 12.8836C7.11044 12.8746 7.11761 12.8639 7.12251 12.8521C7.1274 12.8403 7.12993 12.8277 7.12994 12.8149C7.12995 12.8022 7.12745 12.7896 7.12258 12.7778C7.11771 12.766 7.11057 12.7553 7.10155 12.7462ZM6.04152 11.9427C6.08821 11.903 6.13209 11.8614 6.17709 11.8198L5.38734 11.0306C5.37848 11.021 5.36778 11.0132 5.35586 11.0079C5.34395 11.0025 5.33107 10.9996 5.318 10.9993C5.30493 10.999 5.29193 11.0014 5.2798 11.0062C5.26766 11.0111 5.25664 11.0184 5.24738 11.0276C5.23813 11.0368 5.23084 11.0479 5.22594 11.06C5.22105 11.0721 5.21866 11.0851 5.21891 11.0982C5.21916 11.1112 5.22205 11.1241 5.22741 11.136C5.23277 11.148 5.24048 11.1587 5.25009 11.1676L6.03421 11.9517C6.03759 11.9486 6.03843 11.9461 6.04152 11.9427ZM5.57212 10.71C5.58102 10.7009 5.59165 10.6936 5.60339 10.6887C5.61513 10.6838 5.62773 10.6812 5.64046 10.6812C5.65319 10.6812 5.6658 10.6838 5.67753 10.6887C5.68927 10.6936 5.6999 10.7009 5.7088 10.71L7.42387 12.4245C7.442 12.4427 7.45218 12.4674 7.45218 12.4931C7.45218 12.5188 7.442 12.5435 7.42387 12.5617C7.41489 12.5708 7.40421 12.578 7.39243 12.5829C7.38065 12.5879 7.36801 12.5904 7.35524 12.5904C7.34248 12.5904 7.32984 12.5879 7.31806 12.5829C7.30628 12.578 7.29559 12.5708 7.28662 12.5617L5.57212 10.8467C5.56302 10.8378 5.55579 10.8271 5.55085 10.8154C5.54592 10.8036 5.54337 10.791 5.54337 10.7783C5.54337 10.7656 5.54592 10.753 5.55085 10.7412C5.55579 10.7295 5.56302 10.7189 5.57212 10.71Z" fill="#231F20"/>
<path d="M4.93763 11.3371C4.94665 11.3281 4.95734 11.3209 4.96912 11.316C4.98089 11.3112 4.99351 11.3086 5.00626 11.3086C5.019 11.3086 5.03163 11.3112 5.0434 11.316C5.05518 11.3209 5.06587 11.3281 5.07488 11.3371L6.7891 13.0516C6.79812 13.0606 6.80526 13.0713 6.81014 13.0831C6.81502 13.0948 6.81753 13.1075 6.81753 13.1202C6.81753 13.133 6.81502 13.1456 6.81014 13.1573C6.80526 13.1691 6.79812 13.1798 6.7891 13.1888C6.78009 13.1978 6.76939 13.205 6.75762 13.2099C6.74584 13.2147 6.73322 13.2173 6.72048 13.2173C6.70773 13.2173 6.69511 13.2147 6.68334 13.2099C6.67156 13.205 6.66087 13.1978 6.65185 13.1888L4.93763 11.4743C4.92855 11.4654 4.92134 11.4547 4.91642 11.4429C4.9115 11.4311 4.90897 11.4185 4.90897 11.4057C4.90897 11.3929 4.9115 11.3803 4.91642 11.3685C4.92134 11.3567 4.92855 11.3461 4.93763 11.3371ZM6.64313 11.6521C6.59384 11.6916 6.54988 11.7374 6.51235 11.7882L7.28579 12.5616C7.30399 12.5798 7.32868 12.5901 7.35442 12.5901C7.38016 12.5901 7.40484 12.5798 7.42304 12.5616C7.44124 12.5434 7.45147 12.5188 7.45147 12.493C7.45147 12.4673 7.44124 12.4426 7.42304 12.4244L6.64595 11.6479L6.64313 11.6521ZM5.57213 10.8466L6.36835 11.6436C6.4096 11.5932 6.45507 11.5473 6.50476 11.5058L5.70882 10.7099C5.69992 10.7008 5.68929 10.6936 5.67755 10.6886C5.66581 10.6837 5.65321 10.6812 5.64048 10.6812C5.62775 10.6812 5.61514 10.6837 5.60341 10.6886C5.59167 10.6936 5.58104 10.7008 5.57213 10.7099C5.56304 10.7188 5.55581 10.7294 5.55087 10.7412C5.54593 10.7529 5.54339 10.7655 5.54339 10.7782C5.54339 10.791 5.54593 10.8036 5.55087 10.8153C5.55581 10.827 5.56304 10.8377 5.57213 10.8466Z" fill="#231F20"/>
</svg>
