<svg width="24" height="24" viewBox="0 0 24 24" fill="none" xmlns="http://www.w3.org/2000/svg">
<path d="M15.836 12.4242L16.8705 12.9569C17.0926 12.5435 17.4224 12.1979 17.825 11.9567C18.2276 11.7156 18.688 11.5879 19.1573 11.5872C20.598 11.5872 21.7622 12.7669 21.7622 14.2174C21.7622 15.6679 20.598 16.8473 19.1573 16.8473C17.7166 16.8473 16.5525 15.6677 16.5525 14.2174V14.1384L15.424 13.5574C15.0223 14.3049 14.3994 14.91 13.6406 15.2899L14.1473 17.0871H14.2003C15.64 17.0859 16.8047 18.2662 16.8047 19.7165C16.8047 21.1669 15.64 22.3467 14.1991 22.3467C12.7582 22.3467 11.5943 21.1671 11.5943 19.7165C11.5933 19.2382 11.7225 18.7687 11.9682 18.3583C12.2139 17.9479 12.5667 17.6121 12.9888 17.3871L12.5011 15.6579C11.9524 15.7482 11.3911 15.7248 10.8519 15.589C10.3127 15.4532 9.80716 15.208 9.36676 14.8685L7.16364 16.7831C7.29838 17.1065 7.36753 17.4535 7.36708 17.8038C7.36708 19.2544 6.20294 20.434 4.76223 20.434C3.32153 20.434 2.15622 19.2544 2.15622 17.8038C2.15622 16.3533 3.32012 15.1737 4.76106 15.1737C5.38563 15.1731 5.9892 15.3991 6.45981 15.8097L8.5352 14.0074C8.075 13.3633 7.80791 12.6013 7.76524 11.8109C7.72257 11.0204 7.90608 10.2341 8.29426 9.5442L5.72669 7.65584C5.30026 7.94365 4.7974 8.09712 4.28293 8.09647C2.842 8.09647 1.67786 6.91686 1.67786 5.46631C1.67786 4.01576 2.842 2.83592 4.28293 2.83592C5.72387 2.83592 6.88778 4.01553 6.88778 5.46607C6.88875 5.92433 6.77024 6.37493 6.54395 6.77342L9.02692 8.5992C9.70933 7.94047 10.6014 7.5423 11.5474 7.47419C12.4935 7.40608 13.4334 7.67236 14.2031 8.22654L15.0799 7.11607C14.656 6.63399 14.4227 6.01378 14.4236 5.37186C14.4236 3.92131 15.5878 2.7417 17.0285 2.7417C18.4692 2.7417 19.6333 3.92131 19.6333 5.37186C19.6333 6.8224 18.4713 8.00084 17.0306 8.00084C16.696 8.00126 16.3645 7.93654 16.0547 7.81029L15.0661 9.06256C15.6215 9.78683 15.9217 10.6745 15.9199 11.5872C15.9201 11.8683 15.892 12.1487 15.836 12.4242ZM11.8397 14.1586C13.2325 14.1586 14.366 13.0101 14.366 11.5882C14.366 10.1662 13.2325 9.01686 11.8397 9.01686C10.4468 9.01686 9.31333 10.1653 9.31333 11.5872C9.31333 13.0092 10.4468 14.1576 11.8397 14.1576V14.1586ZM17.0306 6.56717C17.6749 6.56717 18.2008 6.03396 18.2008 5.37186C18.2008 4.70975 17.6749 4.17654 17.0306 4.17654C16.3863 4.17654 15.8604 4.70975 15.8604 5.37186C15.8604 6.03396 16.3863 6.56623 17.0306 6.56623V6.56717ZM4.28293 6.66279C4.927 6.66279 5.45317 6.12959 5.45317 5.46748C5.45317 4.80537 4.927 4.27217 4.28293 4.27217C3.63887 4.27217 3.11247 4.80537 3.11247 5.46748C3.11247 6.12959 3.63864 6.66185 4.28293 6.66185V6.66279ZM19.1573 15.4129C19.8016 15.4129 20.3275 14.8797 20.3275 14.2176C20.3275 13.5555 19.8016 13.0223 19.1573 13.0223C18.513 13.0223 17.9871 13.5555 17.9871 14.2176C17.9871 14.8797 18.513 15.4129 19.1573 15.4129ZM14.1991 20.9121C14.8434 20.9121 15.3696 20.3789 15.3696 19.7168C15.3696 19.0547 14.8434 18.5215 14.1991 18.5215C13.5548 18.5215 13.0289 19.0544 13.0289 19.7168C13.0289 20.3791 13.555 20.9121 14.1991 20.9121ZM4.76106 18.9994C5.40536 18.9994 5.93129 18.4662 5.93129 17.804C5.93129 17.1419 5.40536 16.6087 4.76106 16.6087C4.11676 16.6087 3.59059 17.1419 3.59059 17.804C3.59059 18.4662 4.11676 18.9994 4.76106 18.9994Z" fill="#333330"/>
</svg>
