<svg width="24" height="24" viewBox="0 0 24 24" fill="none" xmlns="http://www.w3.org/2000/svg">
<path d="M9.0005 4.00049C10.106 4.00049 11 4.89599 11 5.99999V12.8265C10.106 12.1365 8.9675 11.7315 7.6655 11.514L7.3355 13.485C8.717 13.7145 9.5975 14.151 10.1405 14.739C10.6715 15.3135 11.0015 16.1655 11.0015 17.499C11.0015 18.1622 10.7381 18.7982 10.2691 19.2671C9.80018 19.736 9.16417 19.9995 8.501 19.9995C7.83783 19.9995 7.20181 19.736 6.73288 19.2671C6.26394 18.7982 6.0005 18.1622 6.0005 17.499V17.148C6.431 17.2905 6.8765 17.409 7.3355 17.4855L7.6655 15.5115C6.9215 15.3885 6.176 15.1125 5.4305 14.7585C5.00232 14.5561 4.64055 14.2361 4.38742 13.8359C4.1343 13.4356 4.00027 12.9716 4.001 12.498C4.001 11.664 4.208 11.007 4.559 10.524C4.904 10.0485 5.444 9.66899 6.2435 9.46799L7.001 9.27899V5.99999C7.001 4.89599 7.8965 4.00049 9.0005 4.00049ZM12.0005 3.35549C11.4631 2.74629 10.7529 2.31514 9.96451 2.11939C9.17608 1.92363 8.34673 1.97254 7.58678 2.25962C6.82683 2.5467 6.17229 3.05834 5.71021 3.72649C5.24812 4.39463 5.00041 5.18763 5 5.99999V7.77299C4.17832 8.09186 3.46447 8.63817 2.942 9.34799C2.2925 10.2405 2 11.3325 2 12.498C2 14.064 2.795 15.435 4.001 16.2405V17.499C4.0007 18.4296 4.28894 19.3375 4.82602 20.0975C5.3631 20.8575 6.12261 21.4323 6.99994 21.7427C7.87727 22.0531 8.82927 22.0839 9.72482 21.8308C10.6204 21.5777 11.4154 21.0532 12.0005 20.3295C12.5855 21.0531 13.3804 21.5776 14.2758 21.8307C15.1712 22.0839 16.1231 22.0532 17.0004 21.743C17.8776 21.4327 18.6371 20.8582 19.1743 20.0984C19.7115 19.3386 20 18.431 20 17.5005V16.242C20.6162 15.8315 21.1213 15.275 21.4704 14.622C21.8196 13.9691 22.0018 13.2399 22.001 12.4995C22.001 11.334 21.7085 10.242 21.059 9.34949C20.5365 8.63967 19.8227 8.09336 19.001 7.77449V5.99999C19.0009 5.1875 18.7534 4.39429 18.2914 3.72591C17.8295 3.05753 17.1749 2.54565 16.4149 2.25839C15.6549 1.97112 14.8254 1.92208 14.0369 2.1178C13.2483 2.31351 12.538 2.7447 12.0005 3.35399V3.35549ZM18.0005 17.1495V17.5005C17.9845 18.1529 17.7141 18.7731 17.2471 19.2289C16.78 19.6846 16.1533 19.9398 15.5007 19.9398C14.8482 19.9398 14.2215 19.6846 13.7544 19.2289C13.2874 18.7731 13.017 18.1529 13.001 17.5005C13.001 16.167 13.331 15.315 13.8605 14.7405C14.4035 14.1525 15.2855 13.716 16.6655 13.4865L16.3355 11.514C15.035 11.73 13.895 12.138 13.001 12.8265V5.99999C13.001 5.46949 13.2117 4.96072 13.5869 4.5856C13.962 4.21048 14.4707 3.99974 15.0012 3.99974C15.5317 3.99974 16.0405 4.21048 16.4156 4.5856C16.7908 4.96072 17.0015 5.46949 17.0015 5.99999V9.28049L17.759 9.46949C18.5585 9.6705 19.097 10.05 19.442 10.5255C19.793 11.0085 20.0015 11.6655 20.0015 12.4995C20.0015 13.4985 19.4195 14.358 18.572 14.76C17.825 15.114 17.0795 15.39 16.337 15.513L16.6655 17.487C17.1245 17.4105 17.57 17.292 18.0005 17.1495Z" fill="black"/>
</svg>
